<svg xmlns="http://www.w3.org/2000/svg" width="528" height="330" viewBox="0 0 528 330" shape-rendering="crispEdges" font-family="monospace">
  <rect x="1" y="1" width="526" height="328" rx="16" fill="#0d1117" stroke="#30363d" stroke-width="2"/>
    <rect x="229" y="28" width="14" height="14" fill="#3fb950"/>
  <rect x="285" y="28" width="14" height="14" fill="#3fb950"/>
  <rect x="229" y="42" width="14" height="14" fill="#3fb950"/>
  <rect x="285" y="42" width="14" height="14" fill="#3fb950"/>
  <rect x="201" y="56" width="14" height="14" fill="#196c2e"/>
  <rect x="215" y="56" width="14" height="14" fill="#196c2e"/>
  <rect x="229" y="56" width="14" height="14" fill="#196c2e"/>
  <rect x="243" y="56" width="14" height="14" fill="#196c2e"/>
  <rect x="257" y="56" width="14" height="14" fill="#196c2e"/>
  <rect x="271" y="56" width="14" height="14" fill="#196c2e"/>
  <rect x="285" y="56" width="14" height="14" fill="#196c2e"/>
  <rect x="299" y="56" width="14" height="14" fill="#196c2e"/>
  <rect x="313" y="56" width="14" height="14" fill="#196c2e"/>
  <rect x="201" y="70" width="14" height="14" fill="#196c2e"/>
  <rect x="215" y="70" width="14" height="14" fill="#3fb950"/>
  <rect x="229" y="70" width="14" height="14" fill="#3fb950"/>
  <rect x="243" y="70" width="14" height="14" fill="#3fb950"/>
  <rect x="257" y="70" width="14" height="14" fill="#3fb950"/>
  <rect x="271" y="70" width="14" height="14" fill="#3fb950"/>
  <rect x="285" y="70" width="14" height="14" fill="#3fb950"/>
  <rect x="299" y="70" width="14" height="14" fill="#3fb950"/>
  <rect x="313" y="70" width="14" height="14" fill="#196c2e"/>
  <rect x="201" y="84" width="14" height="14" fill="#196c2e"/>
  <rect x="215" y="84" width="14" height="14" fill="#3fb950"/>
  <rect x="229" y="84" width="14" height="14" fill="#3fb950"/>
  <rect x="243" y="84" width="14" height="14" fill="#3fb950"/>
  <rect x="257" y="84" width="14" height="14" fill="#3fb950"/>
  <rect x="271" y="84" width="14" height="14" fill="#3fb950"/>
  <rect x="285" y="84" width="14" height="14" fill="#3fb950"/>
  <rect x="299" y="84" width="14" height="14" fill="#3fb950"/>
  <rect x="313" y="84" width="14" height="14" fill="#196c2e"/>
  <rect x="201" y="98" width="14" height="14" fill="#196c2e"/>
  <rect x="215" y="98" width="14" height="14" fill="#3fb950"/>
  <rect x="229" y="98" width="14" height="14" fill="#aff5b4"/>
  <rect x="243" y="98" width="14" height="14" fill="#aff5b4"/>
  <rect x="257" y="98" width="14" height="14" fill="#3fb950"/>
  <rect x="271" y="98" width="14" height="14" fill="#aff5b4"/>
  <rect x="285" y="98" width="14" height="14" fill="#aff5b4"/>
  <rect x="299" y="98" width="14" height="14" fill="#3fb950"/>
  <rect x="313" y="98" width="14" height="14" fill="#196c2e"/>
  <rect x="201" y="112" width="14" height="14" fill="#196c2e"/>
  <rect x="215" y="112" width="14" height="14" fill="#3fb950"/>
  <rect x="229" y="112" width="14" height="14" fill="#3fb950"/>
  <rect x="243" y="112" width="14" height="14" fill="#3fb950"/>
  <rect x="257" y="112" width="14" height="14" fill="#3fb950"/>
  <rect x="271" y="112" width="14" height="14" fill="#3fb950"/>
  <rect x="285" y="112" width="14" height="14" fill="#3fb950"/>
  <rect x="299" y="112" width="14" height="14" fill="#3fb950"/>
  <rect x="313" y="112" width="14" height="14" fill="#196c2e"/>
  <rect x="201" y="126" width="14" height="14" fill="#196c2e"/>
  <rect x="215" y="126" width="14" height="14" fill="#3fb950"/>
  <rect x="229" y="126" width="14" height="14" fill="#08160d"/>
  <rect x="243" y="126" width="14" height="14" fill="#08160d"/>
  <rect x="257" y="126" width="14" height="14" fill="#08160d"/>
  <rect x="271" y="126" width="14" height="14" fill="#08160d"/>
  <rect x="285" y="126" width="14" height="14" fill="#08160d"/>
  <rect x="299" y="126" width="14" height="14" fill="#3fb950"/>
  <rect x="313" y="126" width="14" height="14" fill="#196c2e"/>
  <rect x="201" y="140" width="14" height="14" fill="#196c2e"/>
  <rect x="215" y="140" width="14" height="14" fill="#3fb950"/>
  <rect x="229" y="140" width="14" height="14" fill="#3fb950"/>
  <rect x="243" y="140" width="14" height="14" fill="#3fb950"/>
  <rect x="257" y="140" width="14" height="14" fill="#3fb950"/>
  <rect x="271" y="140" width="14" height="14" fill="#3fb950"/>
  <rect x="285" y="140" width="14" height="14" fill="#3fb950"/>
  <rect x="299" y="140" width="14" height="14" fill="#3fb950"/>
  <rect x="313" y="140" width="14" height="14" fill="#196c2e"/>
  <rect x="201" y="154" width="14" height="14" fill="#196c2e"/>
  <rect x="215" y="154" width="14" height="14" fill="#196c2e"/>
  <rect x="229" y="154" width="14" height="14" fill="#196c2e"/>
  <rect x="243" y="154" width="14" height="14" fill="#196c2e"/>
  <rect x="257" y="154" width="14" height="14" fill="#196c2e"/>
  <rect x="271" y="154" width="14" height="14" fill="#196c2e"/>
  <rect x="285" y="154" width="14" height="14" fill="#196c2e"/>
  <rect x="299" y="154" width="14" height="14" fill="#196c2e"/>
  <rect x="313" y="154" width="14" height="14" fill="#196c2e"/>
  <rect x="215" y="168" width="14" height="14" fill="#196c2e"/>
  <rect x="229" y="168" width="14" height="14" fill="#196c2e"/>
  <rect x="285" y="168" width="14" height="14" fill="#196c2e"/>
  <rect x="299" y="168" width="14" height="14" fill="#196c2e"/>
  <rect x="215" y="182" width="14" height="14" fill="#196c2e"/>
  <rect x="299" y="182" width="14" height="14" fill="#196c2e"/>
  <rect x="215" y="196" width="14" height="14" fill="#196c2e"/>
  <rect x="229" y="196" width="14" height="14" fill="#196c2e"/>
  <rect x="285" y="196" width="14" height="14" fill="#196c2e"/>
  <rect x="299" y="196" width="14" height="14" fill="#196c2e"/>
  <rect x="36" y="234" width="8" height="8" fill="#3fb950"/>
  <rect x="44" y="234" width="8" height="8" fill="#3fb950"/>
  <rect x="52" y="234" width="8" height="8" fill="#3fb950"/>
  <rect x="84" y="234" width="8" height="8" fill="#3fb950"/>
  <rect x="92" y="234" width="8" height="8" fill="#3fb950"/>
  <rect x="100" y="234" width="8" height="8" fill="#3fb950"/>
  <rect x="108" y="234" width="8" height="8" fill="#3fb950"/>
  <rect x="124" y="234" width="8" height="8" fill="#3fb950"/>
  <rect x="132" y="234" width="8" height="8" fill="#3fb950"/>
  <rect x="140" y="234" width="8" height="8" fill="#3fb950"/>
  <rect x="148" y="234" width="8" height="8" fill="#3fb950"/>
  <rect x="156" y="234" width="8" height="8" fill="#3fb950"/>
  <rect x="172" y="234" width="8" height="8" fill="#3fb950"/>
  <rect x="204" y="234" width="8" height="8" fill="#3fb950"/>
  <rect x="220" y="234" width="8" height="8" fill="#3fb950"/>
  <rect x="228" y="234" width="8" height="8" fill="#3fb950"/>
  <rect x="236" y="234" width="8" height="8" fill="#3fb950"/>
  <rect x="244" y="234" width="8" height="8" fill="#3fb950"/>
  <rect x="252" y="234" width="8" height="8" fill="#3fb950"/>
  <rect x="276" y="234" width="8" height="8" fill="#3fb950"/>
  <rect x="284" y="234" width="8" height="8" fill="#3fb950"/>
  <rect x="292" y="234" width="8" height="8" fill="#3fb950"/>
  <rect x="300" y="234" width="8" height="8" fill="#3fb950"/>
  <rect x="316" y="234" width="8" height="8" fill="#3fb950"/>
  <rect x="324" y="234" width="8" height="8" fill="#3fb950"/>
  <rect x="332" y="234" width="8" height="8" fill="#3fb950"/>
  <rect x="340" y="234" width="8" height="8" fill="#3fb950"/>
  <rect x="372" y="234" width="8" height="8" fill="#3fb950"/>
  <rect x="380" y="234" width="8" height="8" fill="#3fb950"/>
  <rect x="388" y="234" width="8" height="8" fill="#3fb950"/>
  <rect x="420" y="234" width="8" height="8" fill="#3fb950"/>
  <rect x="428" y="234" width="8" height="8" fill="#3fb950"/>
  <rect x="436" y="234" width="8" height="8" fill="#3fb950"/>
  <rect x="444" y="234" width="8" height="8" fill="#3fb950"/>
  <rect x="460" y="234" width="8" height="8" fill="#3fb950"/>
  <rect x="468" y="234" width="8" height="8" fill="#3fb950"/>
  <rect x="476" y="234" width="8" height="8" fill="#3fb950"/>
  <rect x="484" y="234" width="8" height="8" fill="#3fb950"/>
  <rect x="492" y="234" width="8" height="8" fill="#3fb950"/>
  <rect x="28" y="242" width="8" height="8" fill="#3fb950"/>
  <rect x="60" y="242" width="8" height="8" fill="#3fb950"/>
  <rect x="76" y="242" width="8" height="8" fill="#3fb950"/>
  <rect x="124" y="242" width="8" height="8" fill="#3fb950"/>
  <rect x="172" y="242" width="8" height="8" fill="#3fb950"/>
  <rect x="180" y="242" width="8" height="8" fill="#3fb950"/>
  <rect x="204" y="242" width="8" height="8" fill="#3fb950"/>
  <rect x="236" y="242" width="8" height="8" fill="#3fb950"/>
  <rect x="268" y="242" width="8" height="8" fill="#3fb950"/>
  <rect x="316" y="242" width="8" height="8" fill="#3fb950"/>
  <rect x="348" y="242" width="8" height="8" fill="#3fb950"/>
  <rect x="364" y="242" width="8" height="8" fill="#3fb950"/>
  <rect x="396" y="242" width="8" height="8" fill="#3fb950"/>
  <rect x="412" y="242" width="8" height="8" fill="#3fb950"/>
  <rect x="460" y="242" width="8" height="8" fill="#3fb950"/>
  <rect x="28" y="250" width="8" height="8" fill="#3fb950"/>
  <rect x="60" y="250" width="8" height="8" fill="#3fb950"/>
  <rect x="76" y="250" width="8" height="8" fill="#3fb950"/>
  <rect x="124" y="250" width="8" height="8" fill="#3fb950"/>
  <rect x="172" y="250" width="8" height="8" fill="#3fb950"/>
  <rect x="188" y="250" width="8" height="8" fill="#3fb950"/>
  <rect x="204" y="250" width="8" height="8" fill="#3fb950"/>
  <rect x="236" y="250" width="8" height="8" fill="#3fb950"/>
  <rect x="268" y="250" width="8" height="8" fill="#3fb950"/>
  <rect x="316" y="250" width="8" height="8" fill="#3fb950"/>
  <rect x="348" y="250" width="8" height="8" fill="#3fb950"/>
  <rect x="364" y="250" width="8" height="8" fill="#3fb950"/>
  <rect x="396" y="250" width="8" height="8" fill="#3fb950"/>
  <rect x="412" y="250" width="8" height="8" fill="#3fb950"/>
  <rect x="460" y="250" width="8" height="8" fill="#3fb950"/>
  <rect x="28" y="258" width="8" height="8" fill="#3fb950"/>
  <rect x="36" y="258" width="8" height="8" fill="#3fb950"/>
  <rect x="44" y="258" width="8" height="8" fill="#3fb950"/>
  <rect x="52" y="258" width="8" height="8" fill="#3fb950"/>
  <rect x="60" y="258" width="8" height="8" fill="#3fb950"/>
  <rect x="76" y="258" width="8" height="8" fill="#3fb950"/>
  <rect x="92" y="258" width="8" height="8" fill="#3fb950"/>
  <rect x="100" y="258" width="8" height="8" fill="#3fb950"/>
  <rect x="108" y="258" width="8" height="8" fill="#3fb950"/>
  <rect x="124" y="258" width="8" height="8" fill="#3fb950"/>
  <rect x="132" y="258" width="8" height="8" fill="#3fb950"/>
  <rect x="140" y="258" width="8" height="8" fill="#3fb950"/>
  <rect x="148" y="258" width="8" height="8" fill="#3fb950"/>
  <rect x="172" y="258" width="8" height="8" fill="#3fb950"/>
  <rect x="188" y="258" width="8" height="8" fill="#3fb950"/>
  <rect x="204" y="258" width="8" height="8" fill="#3fb950"/>
  <rect x="236" y="258" width="8" height="8" fill="#3fb950"/>
  <rect x="276" y="258" width="8" height="8" fill="#3fb950"/>
  <rect x="284" y="258" width="8" height="8" fill="#3fb950"/>
  <rect x="292" y="258" width="8" height="8" fill="#3fb950"/>
  <rect x="316" y="258" width="8" height="8" fill="#3fb950"/>
  <rect x="324" y="258" width="8" height="8" fill="#3fb950"/>
  <rect x="332" y="258" width="8" height="8" fill="#3fb950"/>
  <rect x="340" y="258" width="8" height="8" fill="#3fb950"/>
  <rect x="364" y="258" width="8" height="8" fill="#3fb950"/>
  <rect x="372" y="258" width="8" height="8" fill="#3fb950"/>
  <rect x="380" y="258" width="8" height="8" fill="#3fb950"/>
  <rect x="388" y="258" width="8" height="8" fill="#3fb950"/>
  <rect x="396" y="258" width="8" height="8" fill="#3fb950"/>
  <rect x="412" y="258" width="8" height="8" fill="#3fb950"/>
  <rect x="460" y="258" width="8" height="8" fill="#3fb950"/>
  <rect x="468" y="258" width="8" height="8" fill="#3fb950"/>
  <rect x="476" y="258" width="8" height="8" fill="#3fb950"/>
  <rect x="484" y="258" width="8" height="8" fill="#3fb950"/>
  <rect x="28" y="266" width="8" height="8" fill="#3fb950"/>
  <rect x="60" y="266" width="8" height="8" fill="#3fb950"/>
  <rect x="76" y="266" width="8" height="8" fill="#3fb950"/>
  <rect x="108" y="266" width="8" height="8" fill="#3fb950"/>
  <rect x="124" y="266" width="8" height="8" fill="#3fb950"/>
  <rect x="172" y="266" width="8" height="8" fill="#3fb950"/>
  <rect x="196" y="266" width="8" height="8" fill="#3fb950"/>
  <rect x="204" y="266" width="8" height="8" fill="#3fb950"/>
  <rect x="236" y="266" width="8" height="8" fill="#3fb950"/>
  <rect x="300" y="266" width="8" height="8" fill="#3fb950"/>
  <rect x="316" y="266" width="8" height="8" fill="#3fb950"/>
  <rect x="364" y="266" width="8" height="8" fill="#3fb950"/>
  <rect x="396" y="266" width="8" height="8" fill="#3fb950"/>
  <rect x="412" y="266" width="8" height="8" fill="#3fb950"/>
  <rect x="460" y="266" width="8" height="8" fill="#3fb950"/>
  <rect x="28" y="274" width="8" height="8" fill="#3fb950"/>
  <rect x="60" y="274" width="8" height="8" fill="#3fb950"/>
  <rect x="76" y="274" width="8" height="8" fill="#3fb950"/>
  <rect x="108" y="274" width="8" height="8" fill="#3fb950"/>
  <rect x="124" y="274" width="8" height="8" fill="#3fb950"/>
  <rect x="172" y="274" width="8" height="8" fill="#3fb950"/>
  <rect x="204" y="274" width="8" height="8" fill="#3fb950"/>
  <rect x="236" y="274" width="8" height="8" fill="#3fb950"/>
  <rect x="300" y="274" width="8" height="8" fill="#3fb950"/>
  <rect x="316" y="274" width="8" height="8" fill="#3fb950"/>
  <rect x="364" y="274" width="8" height="8" fill="#3fb950"/>
  <rect x="396" y="274" width="8" height="8" fill="#3fb950"/>
  <rect x="412" y="274" width="8" height="8" fill="#3fb950"/>
  <rect x="460" y="274" width="8" height="8" fill="#3fb950"/>
  <rect x="28" y="282" width="8" height="8" fill="#3fb950"/>
  <rect x="60" y="282" width="8" height="8" fill="#3fb950"/>
  <rect x="84" y="282" width="8" height="8" fill="#3fb950"/>
  <rect x="92" y="282" width="8" height="8" fill="#3fb950"/>
  <rect x="100" y="282" width="8" height="8" fill="#3fb950"/>
  <rect x="108" y="282" width="8" height="8" fill="#3fb950"/>
  <rect x="124" y="282" width="8" height="8" fill="#3fb950"/>
  <rect x="132" y="282" width="8" height="8" fill="#3fb950"/>
  <rect x="140" y="282" width="8" height="8" fill="#3fb950"/>
  <rect x="148" y="282" width="8" height="8" fill="#3fb950"/>
  <rect x="156" y="282" width="8" height="8" fill="#3fb950"/>
  <rect x="172" y="282" width="8" height="8" fill="#3fb950"/>
  <rect x="204" y="282" width="8" height="8" fill="#3fb950"/>
  <rect x="236" y="282" width="8" height="8" fill="#3fb950"/>
  <rect x="268" y="282" width="8" height="8" fill="#3fb950"/>
  <rect x="276" y="282" width="8" height="8" fill="#3fb950"/>
  <rect x="284" y="282" width="8" height="8" fill="#3fb950"/>
  <rect x="292" y="282" width="8" height="8" fill="#3fb950"/>
  <rect x="316" y="282" width="8" height="8" fill="#3fb950"/>
  <rect x="364" y="282" width="8" height="8" fill="#3fb950"/>
  <rect x="396" y="282" width="8" height="8" fill="#3fb950"/>
  <rect x="420" y="282" width="8" height="8" fill="#3fb950"/>
  <rect x="428" y="282" width="8" height="8" fill="#3fb950"/>
  <rect x="436" y="282" width="8" height="8" fill="#3fb950"/>
  <rect x="444" y="282" width="8" height="8" fill="#3fb950"/>
  <rect x="460" y="282" width="8" height="8" fill="#3fb950"/>
  <rect x="468" y="282" width="8" height="8" fill="#3fb950"/>
  <rect x="476" y="282" width="8" height="8" fill="#3fb950"/>
  <rect x="484" y="282" width="8" height="8" fill="#3fb950"/>
  <rect x="492" y="282" width="8" height="8" fill="#3fb950"/>
  <text x="264" y="316" fill="#7d8590" font-size="13" text-anchor="middle" letter-spacing="3">LOCAL AGENT RUNTIME</text>
</svg>
